<svg xmlns="http://www.w3.org/2000/svg" xmlns:xlink="http://www.w3.org/1999/xlink" width="320" zoomAndPan="magnify" viewBox="0 0 240 239.999995" height="320" preserveAspectRatio="xMidYMid meet" version="1.0"><path fill="#00d8ff" d="M 190.171875 85.824219 C 187.914062 85.050781 185.578125 84.3125 183.160156 83.617188 C 183.558594 82.003906 183.925781 80.410156 184.25 78.84375 C 189.550781 53.109375 186.085938 32.375 174.234375 25.550781 C 162.871094 19.007812 144.289062 25.832031 125.519531 42.144531 C 123.71875 43.714844 121.90625 45.375 120.101562 47.113281 C 118.894531 45.964844 117.695312 44.851562 116.492188 43.785156 C 96.824219 26.34375 77.109375 18.992188 65.273438 25.835938 C 53.917969 32.398438 50.558594 51.890625 55.335938 76.277344 C 55.796875 78.632812 56.335938 81.039062 56.945312 83.484375 C 54.15625 84.277344 51.460938 85.117188 48.886719 86.015625 C 25.828125 94.046875 11.101562 106.632812 11.101562 119.6875 C 11.101562 133.167969 26.910156 146.695312 50.925781 154.898438 C 52.820312 155.542969 54.789062 156.15625 56.816406 156.734375 C 56.15625 159.375 55.585938 161.96875 55.105469 164.5 C 50.550781 188.464844 54.105469 207.492188 65.429688 214.011719 C 77.121094 220.75 96.746094 213.824219 115.855469 197.140625 C 117.371094 195.824219 118.882812 194.421875 120.398438 192.960938 C 122.371094 194.847656 124.339844 196.640625 126.285156 198.324219 C 144.800781 214.230469 163.082031 220.65625 174.390625 214.121094 C 186.070312 207.367188 189.871094 186.917969 184.9375 162.050781 C 184.5625 160.148438 184.121094 158.210938 183.636719 156.238281 C 185.015625 155.832031 186.367188 155.40625 187.6875 154.972656 C 212.65625 146.703125 228.898438 133.355469 228.898438 119.6875 C 228.898438 106.585938 213.695312 93.914062 190.171875 85.824219 Z M 184.757812 146.152344 C 183.570312 146.542969 182.34375 146.925781 181.101562 147.289062 C 178.34375 138.582031 174.628906 129.308594 170.066406 119.730469 C 174.414062 110.382812 177.988281 101.234375 180.667969 92.574219 C 182.894531 93.21875 185.058594 93.898438 187.140625 94.613281 C 207.296875 101.542969 219.589844 111.792969 219.589844 119.6875 C 219.589844 128.09375 206.316406 139.011719 184.757812 146.152344 Z M 175.808594 163.855469 C 177.996094 174.851562 178.300781 184.792969 176.855469 192.570312 C 175.5625 199.554688 172.949219 204.210938 169.726562 206.074219 C 162.859375 210.042969 148.183594 204.882812 132.359375 191.277344 C 130.539062 189.714844 128.710938 188.050781 126.882812 186.289062 C 133.015625 179.585938 139.148438 171.792969 145.140625 163.132812 C 155.664062 162.207031 165.609375 160.675781 174.636719 158.59375 C 175.078125 160.386719 175.46875 162.136719 175.808594 163.855469 Z M 85.355469 205.386719 C 78.648438 207.757812 73.308594 207.824219 70.082031 205.964844 C 63.210938 202.003906 60.355469 186.722656 64.25 166.234375 C 64.695312 163.886719 65.226562 161.476562 65.839844 159.011719 C 74.761719 160.980469 84.636719 162.402344 95.191406 163.25 C 101.21875 171.722656 107.53125 179.507812 113.886719 186.324219 C 112.5 187.667969 111.113281 188.941406 109.734375 190.140625 C 101.285156 197.523438 92.820312 202.757812 85.355469 205.386719 Z M 53.9375 146.101562 C 43.320312 142.472656 34.546875 137.765625 28.539062 132.613281 C 23.132812 128 20.40625 123.410156 20.40625 119.6875 C 20.40625 111.769531 32.230469 101.660156 51.949219 94.792969 C 54.34375 93.960938 56.847656 93.171875 59.449219 92.4375 C 62.175781 101.292969 65.75 110.554688 70.0625 119.910156 C 65.691406 129.410156 62.066406 138.816406 59.316406 147.785156 C 57.460938 147.25 55.667969 146.6875 53.9375 146.101562 Z M 64.46875 74.492188 C 60.378906 53.597656 63.09375 37.835938 69.9375 33.878906 C 77.222656 29.664062 93.335938 35.671875 110.3125 50.734375 C 111.402344 51.699219 112.488281 52.707031 113.585938 53.75 C 107.257812 60.535156 101.003906 68.261719 95.03125 76.683594 C 84.789062 77.632812 74.980469 79.15625 65.96875 81.195312 C 65.402344 78.917969 64.898438 76.679688 64.46875 74.492188 Z M 158.414062 97.664062 C 156.257812 93.945312 154.046875 90.316406 151.792969 86.785156 C 158.742188 87.664062 165.398438 88.828125 171.648438 90.253906 C 169.777344 96.261719 167.4375 102.542969 164.683594 108.988281 C 162.707031 105.238281 160.617188 101.460938 158.414062 97.664062 Z M 120.101562 60.390625 C 124.398438 65.035156 128.695312 70.21875 132.921875 75.84375 C 128.660156 75.644531 124.347656 75.539062 120 75.539062 C 115.695312 75.539062 111.414062 75.640625 107.179688 75.839844 C 111.40625 70.265625 115.746094 65.089844 120.101562 60.390625 Z M 81.546875 97.730469 C 79.394531 101.457031 77.34375 105.214844 75.398438 108.980469 C 72.691406 102.5625 70.371094 96.25 68.476562 90.152344 C 74.691406 88.765625 81.320312 87.628906 88.222656 86.769531 C 85.9375 90.332031 83.707031 93.988281 81.546875 97.730469 Z M 88.421875 153.265625 C 81.289062 152.476562 74.5625 151.394531 68.351562 150.042969 C 70.273438 143.839844 72.640625 137.398438 75.410156 130.839844 C 77.359375 134.601562 79.417969 138.359375 81.582031 142.097656 L 81.585938 142.097656 C 83.789062 145.90625 86.078125 149.628906 88.421875 153.265625 Z M 120.355469 179.636719 C 115.949219 174.886719 111.550781 169.625 107.253906 163.972656 C 111.425781 164.132812 115.679688 164.21875 120 164.21875 C 124.441406 164.21875 128.832031 164.117188 133.144531 163.929688 C 128.90625 169.683594 124.621094 174.953125 120.355469 179.636719 Z M 164.765625 130.507812 C 167.675781 137.136719 170.136719 143.542969 172.085938 149.644531 C 165.769531 151.082031 158.949219 152.238281 151.769531 153.105469 C 154.03125 149.527344 156.257812 145.828125 158.453125 142.03125 C 160.675781 138.1875 162.777344 134.339844 164.765625 130.507812 Z M 150.390625 137.390625 C 146.988281 143.289062 143.488281 148.914062 139.941406 154.226562 C 133.484375 154.683594 126.804688 154.921875 120 154.921875 C 113.21875 154.921875 106.625 154.71875 100.277344 154.300781 C 96.585938 148.921875 93.019531 143.28125 89.636719 137.441406 C 86.261719 131.621094 83.15625 125.746094 80.34375 119.910156 C 83.15625 114.0625 86.253906 108.183594 89.609375 102.371094 L 89.605469 102.371094 C 92.96875 96.546875 96.511719 90.929688 100.167969 85.578125 C 106.644531 85.089844 113.289062 84.835938 120 84.835938 C 126.746094 84.835938 133.390625 85.09375 139.867188 85.585938 C 143.472656 90.894531 146.988281 96.496094 150.363281 102.320312 C 153.777344 108.214844 156.914062 114.054688 159.746094 119.78125 C 156.921875 125.601562 153.792969 131.5 150.390625 137.390625 Z M 169.582031 33.601562 C 176.882812 37.800781 179.714844 54.746094 175.128906 76.964844 C 174.839844 78.382812 174.507812 79.824219 174.152344 81.289062 C 165.117188 79.207031 155.308594 77.65625 145.039062 76.695312 C 139.046875 68.179688 132.847656 60.441406 126.617188 53.742188 C 128.296875 52.132812 129.972656 50.601562 131.628906 49.152344 C 147.710938 35.175781 162.742188 29.65625 169.582031 33.601562 Z M 120 100.257812 C 130.738281 100.257812 139.449219 108.953125 139.449219 119.6875 C 139.449219 130.410156 130.738281 139.113281 120 139.113281 C 109.261719 139.113281 100.550781 130.410156 100.550781 119.6875 C 100.550781 108.953125 109.261719 100.257812 120 100.257812 Z M 120 100.257812 " fill-opacity="1" fill-rule="nonzero"/></svg>